<?xml version="1.0" encoding="UTF-8" standalone="no"?>
<!-- Created with Inkscape (http://www.inkscape.org/) -->

<svg width="24" height="24" viewBox="0 0 6.3499999 6.3500002" >
  <g transform="translate(0,-290.64998)">
   <path d="m 4.8398438,291.78516 -3.703125,3.70507 0.3730468,0.37305 3.7050782,-3.70312 z" />
   <path d="m 1.984375,291.70898 c -0.5083057,0 -0.9257825,0.41748 -0.9257812,0.92579 -1.3e-6,0.5083 0.4174755,0.92578 0.9257812,0.92578 0.5083057,0 0.9257825,-0.41748 0.9257812,-0.92578 1.3e-6,-0.50831 -0.4174755,-0.92579 -0.9257812,-0.92579 z m 0,0.5293 c 0.2223223,0 0.3964849,0.17416 0.3964844,0.39649 5e-7,0.22232 -0.1741621,0.39648 -0.3964844,0.39648 -0.2223223,0 -0.3964849,-0.17416 -0.3964844,-0.39648 -5e-7,-0.22233 0.1741621,-0.39649 0.3964844,-0.39649 z" />
   <path d="m 4.3652344,294.08984 c -0.5083057,0 -0.9257826,0.41748 -0.9257813,0.92578 -1.3e-6,0.50831 0.4174756,0.92579 0.9257813,0.92579 0.5083056,0 0.9257825,-0.41748 0.9257812,-0.92579 1.3e-6,-0.5083 -0.4174756,-0.92578 -0.9257812,-0.92578 z m 0,0.5293 c 0.2223223,0 0.3964849,0.17416 0.3964844,0.39648 5e-7,0.22233 -0.1741621,0.39649 -0.3964844,0.39649 -0.2223223,0 -0.396485,-0.17416 -0.3964844,-0.39649 -6e-7,-0.22232 0.1741621,-0.39648 0.3964844,-0.39648 z" />
  </g>
</svg>
