<?xml version="1.0" encoding="UTF-8" standalone="no"?>
<!-- Created with Inkscape (http://www.inkscape.org/) -->

<svg width="24" height="24" viewBox="0 0 6.3499999 6.3500002" >
  <g transform="translate(0,-290.64998)">
    <path
       style="stroke-width:0.26458332"
       d="M 3.7041666,293.82498 A 0.52916664,0.52916664 0 0 1 3.175,294.35415 0.52916664,0.52916664 0 0 1 2.6458333,293.82498 0.52916664,0.52916664 0 0 1 3.175,293.29582 a 0.52916664,0.52916664 0 0 1 0.5291666,0.52916 z"
       id="path3754" />
    <path
       style="stroke-width:0.52916664;stroke-linecap:round;stroke-linejoin:round;stroke-miterlimit:4;stroke-dasharray:none"
       d="M 3.7041666,291.70831 A 0.52916664,0.52916664 0 0 1 3.175,292.23748 0.52916664,0.52916664 0 0 1 2.6458333,291.70831 0.52916664,0.52916664 0 0 1 3.175,291.17915 a 0.52916664,0.52916664 0 0 1 0.5291666,0.52916 z"
       id="path4565" />
    <path
       style="stroke-width:0.52916664;stroke-linecap:round;stroke-linejoin:round;stroke-miterlimit:4;stroke-dasharray:none"
       d="M 3.7041666,295.94165 A 0.52916664,0.52916664 0 0 1 3.175,296.47082 0.52916664,0.52916664 0 0 1 2.6458333,295.94165 0.52916664,0.52916664 0 0 1 3.175,295.41248 a 0.52916664,0.52916664 0 0 1 0.5291666,0.52917 z"
       id="path4567" />
  </g>
</svg>
