<?xml version="1.0" encoding="UTF-8" standalone="no"?>
<svg
   xmlns:dc="http://purl.org/dc/elements/1.1/"
   xmlns:cc="http://creativecommons.org/ns#"
   xmlns:rdf="http://www.w3.org/1999/02/22-rdf-syntax-ns#"
   xmlns:svg="http://www.w3.org/2000/svg"
   xmlns="http://www.w3.org/2000/svg"
   xmlns:sodipodi="http://sodipodi.sourceforge.net/DTD/sodipodi-0.dtd"
   xmlns:inkscape="http://www.inkscape.org/namespaces/inkscape"
   version="1.1"
   x="0px"
   y="0px"
   width="199.5101"
   height="56.356083"
   viewBox="0 0 629.1551 177.57764"
   xml:space="preserve"
   id="svg66"
   sodipodi:docname="logo-diatem--no-baseline--white-only.svg"
   inkscape:version="0.92.5 (2060ec1f9f, 2020-04-08)"><metadata
   id="metadata70"><rdf:RDF><cc:Work
       rdf:about=""><dc:format>image/svg+xml</dc:format><dc:type
         rdf:resource="http://purl.org/dc/dcmitype/StillImage" /><dc:title></dc:title></cc:Work></rdf:RDF></metadata><sodipodi:namedview
   pagecolor="#ffffff"
   bordercolor="#666666"
   borderopacity="1"
   objecttolerance="10"
   gridtolerance="10"
   guidetolerance="10"
   inkscape:pageopacity="0"
   inkscape:pageshadow="2"
   inkscape:window-width="3840"
   inkscape:window-height="2022"
   id="namedview68"
   showgrid="false"
   inkscape:zoom="6.2516556"
   inkscape:cx="72.536215"
   inkscape:cy="-31.741429"
   inkscape:window-x="0"
   inkscape:window-y="100"
   inkscape:window-maximized="1"
   inkscape:current-layer="svg66"
   fit-margin-top="0"
   fit-margin-left="0"
   fit-margin-right="0"
   fit-margin-bottom="0" />
<defs
   id="defs4">

    
    
    
    
    
    
</defs>
<path
   inkscape:connector-curvature="0"
   id="path6"
   d="m 251.9551,170.72429 c 0,2.1 -0.5,3.6 -1.6,4.3 -1,0.8 -2.6,1.2 -4.7,1.2 -2.1,0 -3.7,-0.4 -4.8,-1.2 -1.1,-0.8 -1.6,-2.2 -1.6,-4.3 v -6.7 c -2.2,3.8 -5.5,7 -9.9,9.6 -4.4,2.6 -9.8,3.9 -16.2,3.9 -5.5,0 -10.4,-1 -14.6,-2.9 -4.2,-1.9 -7.8,-4.6 -10.8,-8 -3,-3.4 -5.2,-7.5 -6.7,-12.3 -1.5,-4.8 -2.3,-10 -2.3,-15.7 0,-5.7 0.8,-10.9 2.3,-15.7 1.5,-4.7 3.8,-8.8 6.7,-12.2 3,-3.4 6.6,-6 10.8,-7.9 4.2,-1.9 9.1,-2.8 14.6,-2.8 3.2,0 6.2,0.4 9,1.2 2.8,0.8 5.2,1.7 7.4,2.9 2.1,1.2 4,2.5 5.6,4 1.6,1.5 2.8,3 3.6,4.4 V 79.324287 c 0,-2.2 0.6,-3.7 1.8,-4.6 1.2,-0.8 2.8,-1.2 4.9,-1.2 2.1,0 3.7,0.4 4.8,1.2 1.1,0.8 1.7,2.3 1.7,4.6 z m -59.1,-31.7 c 0,8.4 2,15.1 5.9,20.1 4,5 9.6,7.5 17,7.5 3.8,0 7.1,-0.7 10,-2.1 2.9,-1.4 5.4,-3.4 7.4,-5.9 2,-2.5 3.5,-5.5 4.5,-8.9 1,-3.4 1.5,-7.2 1.5,-11.2 0,-8.6 -2.1,-15.3 -6.3,-20.2 -4.2,-4.9 -10,-7.3 -17.5,-7.3 -3.8,0 -7,0.7 -9.9,2 -2.8,1.4 -5.2,3.3 -7,5.7 -1.9,2.5 -3.3,5.4 -4.2,8.8 -1,3.6 -1.4,7.4 -1.4,11.5 z"
   class="st0000" /><path
   inkscape:connector-curvature="0"
   id="path8"
   d="m 268.3551,81.424287 c 0,-2.5 0.8,-4.5 2.4,-5.9 1.6,-1.4 3.6,-2.1 6,-2.1 2.4,0 4.4,0.7 6,2.1 1.6,1.4 2.4,3.4 2.4,5.9 0,2.5 -0.8,4.5 -2.4,5.9 -1.6,1.4 -3.6,2.1 -6,2.1 -2.4,0 -4.4,-0.7 -6,-2.1 -1.6,-1.5 -2.4,-3.4 -2.4,-5.9 z m 1.9,25.800003 c 0,-2.2 0.6,-3.7 1.7,-4.6 1.1,-0.8 2.8,-1.2 4.8,-1.2 2.1,0 3.7,0.4 4.9,1.2 1.2,0.8 1.8,2.3 1.8,4.6 v 63.2 c 0,2.2 -0.6,3.7 -1.8,4.6 -1.2,0.8 -2.8,1.2 -4.9,1.2 -2.1,0 -3.7,-0.4 -4.8,-1.2 -1.1,-0.8 -1.7,-2.3 -1.7,-4.6 z"
   class="st0000" /><path
   inkscape:connector-curvature="0"
   id="path10"
   d="m 352.1551,129.82429 v -2.9 c 0,-5.5 -1.5,-9.6 -4.6,-12.3 -3.1,-2.7 -8.1,-4.1 -14.9,-4.1 -2.7,0 -5.1,0.3 -7,0.9 -2,0.6 -3.7,1.3 -5.1,2 -1.4,0.8 -2.6,1.6 -3.4,2.5 -0.9,0.9 -1.6,1.6 -2.3,2.3 -1,1.2 -1.9,1.9 -2.7,2.3 -0.7,0.4 -1.7,0.6 -2.8,0.6 -1.7,0 -3.2,-0.5 -4.6,-1.4 -1.4,-0.9 -2.1,-2.1 -2.1,-3.6 0,-0.8 0.1,-1.4 0.2,-1.9 0.2,-0.5 0.4,-1 0.7,-1.6 0.1,-0.3 0.7,-1.1 1.9,-2.5 1.1,-1.4 2.9,-2.8 5.2,-4.3 2.3,-1.5 5.4,-2.9 9.1,-4.1 3.7,-1.2 8.2,-1.800003 13.5,-1.800003 5.9,0 11,0.700003 15.1,2.100003 4.1,1.4 7.4,3.3 9.9,5.6 2.5,2.3 4.3,5 5.5,8 1.1,3 1.7,6.2 1.7,9.5 v 46.2 c 0,3.2 -2.2,4.8 -6.7,4.8 -3,0 -4.9,-0.6 -5.6,-1.9 -0.7,-1.3 -1,-3 -1,-5.2 v -4.3 c -1,1.4 -2.3,2.8 -3.8,4.2 -1.5,1.5 -3.3,2.8 -5.4,4 -2.1,1.2 -4.7,2.2 -7.7,3 -3,0.8 -6.4,1.2 -10.2,1.2 -4.7,0 -8.7,-0.5 -12.1,-1.6 -3.4,-1.1 -6.2,-2.5 -8.4,-4.4 -2.2,-1.9 -3.9,-4.1 -5,-6.7 -1.1,-2.6 -1.6,-5.3 -1.6,-8.2 0,-3.8 0.7,-7.2 2.2,-10.4 1.5,-3.2 4,-5.9 7.5,-8.2 3.5,-2.3 8.3,-4.1 14.2,-5.4 5.9,-1.3 13.3,-2.1 22.3,-2.2 z m -8.6,9.9 c -6.7,0.1 -12.1,0.5 -16.3,1.3 -4.2,0.8 -7.5,1.8 -9.9,3.1 -2.4,1.3 -4,2.9 -4.9,4.7 -0.9,1.8 -1.3,3.9 -1.3,6.2 0,3.3 1.2,6.1 3.7,8.5 2.4,2.4 6.5,3.6 12.1,3.6 4.9,0 9.4,-1 13.4,-3.1 4,-2.1 7.1,-4.7 9.2,-7.8 1.8,-2.6 2.7,-6.1 2.7,-10.6 v -6.1 z"
   class="st0000" /><path
   inkscape:connector-curvature="0"
   id="path12"
   d="m 379.5551,112.82429 c -2.1,0 -3.5,-0.5 -4.2,-1.4 -0.7,-0.9 -1.1,-2.2 -1.1,-3.8 0,-1.6 0.4,-2.9 1.1,-3.8 0.7,-0.9 2.1,-1.4 4.2,-1.4 h 7 V 87.524287 c 0,-1.8 0.2,-3.2 0.5,-4.1 0.4,-0.9 1.1,-1.6 2.3,-2.3 1.9,-1.1 3.9,-1.6 6.1,-1.6 2.9,0 4.4,1.4 4.4,4.2 v 18.700003 h 14.7 c 2.1,0 3.5,0.5 4.2,1.4 0.7,0.9 1.1,2.2 1.1,3.8 0,1.6 -0.4,2.9 -1.1,3.8 -0.7,0.9 -2.1,1.4 -4.2,1.4 h -14.6 v 42.9 c 0,4.3 0.7,7.2 2.1,8.7 1.4,1.5 3.8,2.3 7.1,2.3 1.3,0 2.3,-0.1 3.2,-0.4 0.9,-0.3 1.7,-0.6 2.4,-0.9 0.7,-0.3 1.4,-0.6 2.1,-0.9 0.7,-0.3 1.5,-0.4 2.4,-0.4 1.5,0 2.7,0.6 3.8,1.7 1.1,1.2 1.6,2.6 1.6,4.2 0,2.3 -1.6,4.1 -4.8,5.4 -3.2,1.3 -7.3,2 -12.2,2 -7.2,0 -12.5,-1.6 -16,-4.9 -3.4,-3.2 -5.2,-7.9 -5.2,-14.1 v -45.7 h -6.9 z"
   class="st0000" /><path
   inkscape:connector-curvature="0"
   id="path14"
   d="m 500.4551,137.02429 c 0,3.5 -2.1,5.2 -6.4,5.2 h -53.2 c 0,7.8 2.1,13.9 6.3,18.1 4.2,4.3 10.2,6.4 17.9,6.4 3,0 5.7,-0.4 7.9,-1.1 2.2,-0.7 4.1,-1.6 5.7,-2.6 1.6,-1 2.8,-2.1 3.8,-3.1 1,-1.1 1.8,-2 2.4,-2.8 0.7,-1 1.4,-1.7 2.1,-2.2 0.7,-0.5 1.7,-0.7 3,-0.7 1.5,0 2.9,0.4 4.3,1.3 1.4,0.9 2.1,2 2.1,3.5 0,1.3 -0.6,2.8 -1.7,4.5 -0.9,1.4 -2.2,2.8 -3.7,4.4 -1.5,1.6 -3.4,3.1 -5.8,4.6 -2.3,1.5 -5.2,2.7 -8.5,3.6 -3.3,1 -7.2,1.5 -11.7,1.5 -5.8,0 -11.1,-0.9 -15.9,-2.8 -4.7,-1.9 -8.8,-4.5 -12.1,-8 -3.3,-3.4 -5.9,-7.5 -7.7,-12.3 -1.8,-4.8 -2.7,-10 -2.7,-15.7 0,-5.8 0.9,-11.1 2.7,-15.8 1.8,-4.7 4.3,-8.8 7.6,-12.2 3.3,-3.4 7.2,-6.1 11.9,-8 4.6,-1.9 9.8,-2.8 15.6,-2.8 5.8,0 11,0.9 15.5,2.8 4.5,1.9 8.2,4.5 11.3,7.8 3,3.3 5.3,7.3 6.9,11.8 1.6,4.5 2.4,9.4 2.4,14.6 z m -35.9,-26.5 c -3.7,0 -6.8,0.6 -9.5,1.7 -2.7,1.1 -5,2.6 -6.9,4.5 -1.9,1.9 -3.4,4.1 -4.5,6.7 -1.1,2.6 -1.8,5.2 -2.1,8 h 45.5 c -0.3,-2.7 -1,-5.3 -2,-7.9 -1,-2.6 -2.4,-4.8 -4.2,-6.7 -1.8,-1.9 -4.1,-3.4 -6.8,-4.6 -2.7,-1.1 -5.9,-1.7 -9.5,-1.7 z"
   class="st0000" /><path
   inkscape:connector-curvature="0"
   id="path16"
   d="m 602.3551,99.924287 c 8.2,0 14.8,2.100003 19.6,6.200003 4.8,4.1 7.2,10.4 7.2,18.9 v 46.1 c 0,3.4 -2.1,5.1 -6.4,5.1 -4.6,0 -6.9,-1.7 -6.9,-5.1 v -42.2 c 0,-2.7 -0.2,-5.2 -0.7,-7.4 -0.5,-2.2 -1.3,-4.1 -2.6,-5.6 -1.3,-1.5 -2.9,-2.7 -5.1,-3.5 -2.1,-0.8 -4.9,-1.2 -8.2,-1.2 -4.1,0 -7.5,0.9 -10.2,2.6 -2.7,1.7 -4.8,4 -6.4,6.7 -1.6,2.7 -2.7,5.8 -3.4,9.1 -0.7,3.4 -1,6.7 -1,10 v 31.5 c 0,3.4 -2.1,5.1 -6.4,5.1 -4.6,0 -6.9,-1.7 -6.9,-5.1 v -42.2 c 0,-2.7 -0.2,-5.2 -0.7,-7.4 -0.5,-2.2 -1.3,-4.1 -2.6,-5.6 -1.3,-1.5 -2.9,-2.7 -5.1,-3.5 -2.1,-0.8 -4.9,-1.2 -8.2,-1.2 -4.1,0 -7.5,0.8 -10.2,2.5 -2.7,1.7 -4.8,3.9 -6.4,6.6 -1.6,2.7 -2.7,5.8 -3.4,9.1 -0.7,3.4 -1,6.7 -1,10 v 30.9 c 0,2.2 -0.6,3.7 -1.8,4.6 -1.2,0.8 -2.8,1.2 -4.9,1.2 -2.1,0 -3.7,-0.4 -4.8,-1.2 -1.1,-0.8 -1.7,-2.3 -1.7,-4.6 v -63.4 c 0,-2.1 0.5,-3.6 1.6,-4.3 1,-0.8 2.6,-1.2 4.7,-1.2 2.1,0 3.7,0.4 4.8,1.2 1.1,0.8 1.6,2.2 1.6,4.3 v 6.8 c 0.1,-0.4 0.5,-1.3 1.3,-2.6 0.8,-1.5 2.2,-3.1 4.1,-4.8 1.9,-1.6 4.4,-3.1 7.6,-4.4 3.2,-1.3 7.2,-2.000003 12,-2.000003 6.4,0 11.5,1.200003 15.6,3.600003 4,2.4 6.9,5.6 8.7,9.6 2.2,-4 5.6,-7.2 10.2,-9.6 4.3,-2.4 9.7,-3.600003 16,-3.600003 z"
   class="st0000" />
<path
   class="st11111"
   d="M 138.8551,104.92429 72.555104,36.524287 c -4.4,-4.5 -11.9,-5 -16.8,-1.1 -26.1,20.7 -38.9,38.4 -53.3999997,70.900003 -6.7,15.1 1.4,28.5 17.8999997,29.7 l 102.999996,20.4 c 6,0.4 12.3,-3.9 13.9,-9.7 l 6.5,-23.4 c 1.5,-5.8 -0.6,-14.1 -4.8,-18.4 z"
   id="path20"
   inkscape:connector-curvature="0"
   />
<path
   class="st222222"
   d="m 162.1551,72.424287 -14.7,-59.7 c -1.8,-7.2000002 -9.2,-13.20000021 -16.5,-12.80000021 -14.1,0.9 -28,4.10000001 -42.999996,10.40000021 -6.8,2.8 -8.2,10.1 -3.5,15.7 l 59.199996,70.4 c 4.7,5.600003 11.5,5.400003 15.1,-0.5 3.6,-5.9 5.1,-16.4 3.4,-23.5 z"
   id="path22"
   inkscape:connector-curvature="0"
   />
<path
   class="st333333"
   d="m 192.0551,70.724287 8.7,-26.3 c 3,-9.1 0.2,-22.2 -7.1,-28.5 -5,-4.3 -10.5,-8.6000002 -16.1,-12.3000002 -8,-5.3 -14.7,-0.6 -14.1,9.0000002 l 2.9,45 c 0.6,9.6 5.4,20.1 10.7,23.4 5.3,3.4 12,-1.2 15,-10.3 z"
   id="path24"
   inkscape:connector-curvature="0"
   />




















</svg>