<?xml version="1.0" encoding="UTF-8" standalone="no"?>
<svg
   xmlns:dc="http://purl.org/dc/elements/1.1/"
   xmlns:cc="http://creativecommons.org/ns#"
   xmlns:rdf="http://www.w3.org/1999/02/22-rdf-syntax-ns#"
   xmlns:svg="http://www.w3.org/2000/svg"
   xmlns="http://www.w3.org/2000/svg"
   xmlns:sodipodi="http://sodipodi.sourceforge.net/DTD/sodipodi-0.dtd"
   xmlns:inkscape="http://www.inkscape.org/namespaces/inkscape"
   version="1.1"
   x="0px"
   y="0px"
   width="200px"
   height="75.5px"
   viewBox="0 0 630.7 237.9"
   style="enable-background:new 0 0 630.7 237.9;"
   xml:space="preserve"
   id="svg66"
   sodipodi:docname="logo-diatem--white-only.svg"
   inkscape:version="0.92.5 (2060ec1f9f, 2020-04-08)"><metadata
   id="metadata70"><rdf:RDF><cc:Work
       rdf:about=""><dc:format>image/svg+xml</dc:format><dc:type
         rdf:resource="http://purl.org/dc/dcmitype/StillImage" /><dc:title></dc:title></cc:Work></rdf:RDF></metadata><sodipodi:namedview
   pagecolor="#ffffff"
   bordercolor="#666666"
   borderopacity="1"
   objecttolerance="10"
   gridtolerance="10"
   guidetolerance="10"
   inkscape:pageopacity="0"
   inkscape:pageshadow="2"
   inkscape:window-width="3840"
   inkscape:window-height="2022"
   id="namedview68"
   showgrid="false"
   inkscape:zoom="6.2516556"
   inkscape:cx="72.550452"
   inkscape:cy="12.971698"
   inkscape:window-x="0"
   inkscape:window-y="100"
   inkscape:window-maximized="1"
   inkscape:current-layer="svg66" />
<defs
   id="defs4">
</defs>
<g
   id="g18"
   style="fill:#ffffff;fill-opacity:1">
    <path
   class="st0000"
   d="M252,170.8c0,2.1-0.5,3.6-1.6,4.3c-1,0.8-2.6,1.2-4.7,1.2c-2.1,0-3.7-0.4-4.8-1.2c-1.1-0.8-1.6-2.2-1.6-4.3         v-6.7c-2.2,3.8-5.5,7-9.9,9.6c-4.4,2.6-9.8,3.9-16.2,3.9c-5.5,0-10.4-1-14.6-2.9c-4.2-1.9-7.8-4.6-10.8-8c-3-3.4-5.2-7.5-6.7-12.3         c-1.5-4.8-2.3-10-2.3-15.7c0-5.7,0.8-10.9,2.3-15.7c1.5-4.7,3.8-8.8,6.7-12.2c3-3.4,6.6-6,10.8-7.9s9.1-2.8,14.6-2.8         c3.2,0,6.2,0.4,9,1.2c2.8,0.8,5.2,1.7,7.4,2.9c2.1,1.2,4,2.5,5.6,4c1.6,1.5,2.8,3,3.6,4.4V79.4c0-2.2,0.6-3.7,1.8-4.6         c1.2-0.8,2.8-1.2,4.9-1.2c2.1,0,3.7,0.4,4.8,1.2c1.1,0.8,1.7,2.3,1.7,4.6V170.8z M192.9,139.1c0,8.4,2,15.1,5.9,20.1         c4,5,9.6,7.5,17,7.5c3.8,0,7.1-0.7,10-2.1c2.9-1.4,5.4-3.4,7.4-5.9c2-2.5,3.5-5.5,4.5-8.9c1-3.4,1.5-7.2,1.5-11.2         c0-8.6-2.1-15.3-6.3-20.2c-4.2-4.9-10-7.3-17.5-7.3c-3.8,0-7,0.7-9.9,2c-2.8,1.4-5.2,3.3-7,5.7c-1.9,2.5-3.3,5.4-4.2,8.8         C193.3,131.2,192.9,135,192.9,139.1z"
   id="path6"
   style="fill:#ffffff;fill-opacity:1" />
    <path
   class="st0000"
   d="M268.4,81.5c0-2.5,0.8-4.5,2.4-5.9c1.6-1.4,3.6-2.1,6-2.1c2.4,0,4.4,0.7,6,2.1c1.6,1.4,2.4,3.4,2.4,5.9         c0,2.5-0.8,4.5-2.4,5.9c-1.6,1.4-3.6,2.1-6,2.1c-2.4,0-4.4-0.7-6-2.1C269.2,85.9,268.4,84,268.4,81.5z M270.3,107.3         c0-2.2,0.6-3.7,1.7-4.6c1.1-0.8,2.8-1.2,4.8-1.2c2.1,0,3.7,0.4,4.9,1.2c1.2,0.8,1.8,2.3,1.8,4.6v63.2c0,2.2-0.6,3.7-1.8,4.6         c-1.2,0.8-2.8,1.2-4.9,1.2c-2.1,0-3.7-0.4-4.8-1.2c-1.1-0.8-1.7-2.3-1.7-4.6V107.3z"
   id="path8"
   style="fill:#ffffff;fill-opacity:1" />
    <path
   class="st0000"
   d="M352.2,129.9V127c0-5.5-1.5-9.6-4.6-12.3c-3.1-2.7-8.1-4.1-14.9-4.1c-2.7,0-5.1,0.3-7,0.9         c-2,0.6-3.7,1.3-5.1,2c-1.4,0.8-2.6,1.6-3.4,2.5c-0.9,0.9-1.6,1.6-2.3,2.3c-1,1.2-1.9,1.9-2.7,2.3c-0.7,0.4-1.7,0.6-2.8,0.6         c-1.7,0-3.2-0.5-4.6-1.4c-1.4-0.9-2.1-2.1-2.1-3.6c0-0.8,0.1-1.4,0.2-1.9c0.2-0.5,0.4-1,0.7-1.6c0.1-0.3,0.7-1.1,1.9-2.5         c1.1-1.4,2.9-2.8,5.2-4.3c2.3-1.5,5.4-2.9,9.1-4.1c3.7-1.2,8.2-1.8,13.5-1.8c5.9,0,11,0.7,15.1,2.1c4.1,1.4,7.4,3.3,9.9,5.6         s4.3,5,5.5,8c1.1,3,1.7,6.2,1.7,9.5v46.2c0,3.2-2.2,4.8-6.7,4.8c-3,0-4.9-0.6-5.6-1.9c-0.7-1.3-1-3-1-5.2v-4.3         c-1,1.4-2.3,2.8-3.8,4.2c-1.5,1.5-3.3,2.8-5.4,4c-2.1,1.2-4.7,2.2-7.7,3c-3,0.8-6.4,1.2-10.2,1.2c-4.7,0-8.7-0.5-12.1-1.6         c-3.4-1.1-6.2-2.5-8.4-4.4c-2.2-1.9-3.9-4.1-5-6.7c-1.1-2.6-1.6-5.3-1.6-8.2c0-3.8,0.7-7.2,2.2-10.4c1.5-3.2,4-5.9,7.5-8.2         c3.5-2.3,8.3-4.1,14.2-5.4c5.9-1.3,13.3-2.1,22.3-2.2L352.2,129.9z M343.6,139.8c-6.7,0.1-12.1,0.5-16.3,1.3         c-4.2,0.8-7.5,1.8-9.9,3.1c-2.4,1.3-4,2.9-4.9,4.7c-0.9,1.8-1.3,3.9-1.3,6.2c0,3.3,1.2,6.1,3.7,8.5c2.4,2.4,6.5,3.6,12.1,3.6         c4.9,0,9.4-1,13.4-3.1c4-2.1,7.1-4.7,9.2-7.8c1.8-2.6,2.7-6.1,2.7-10.6v-6.1L343.6,139.8z"
   id="path10"
   style="fill:#ffffff;fill-opacity:1" />
    <path
   class="st0000"
   d="M379.6,112.9c-2.1,0-3.5-0.5-4.2-1.4c-0.7-0.9-1.1-2.2-1.1-3.8c0-1.6,0.4-2.9,1.1-3.8c0.7-0.9,2.1-1.4,4.2-1.4         h7V87.6c0-1.8,0.2-3.2,0.5-4.1c0.4-0.9,1.1-1.6,2.3-2.3c1.9-1.1,3.9-1.6,6.1-1.6c2.9,0,4.4,1.4,4.4,4.2v18.7h14.7         c2.1,0,3.5,0.5,4.2,1.4c0.7,0.9,1.1,2.2,1.1,3.8c0,1.6-0.4,2.9-1.1,3.8c-0.7,0.9-2.1,1.4-4.2,1.4H400v42.9c0,4.3,0.7,7.2,2.1,8.7         c1.4,1.5,3.8,2.3,7.1,2.3c1.3,0,2.3-0.1,3.2-0.4c0.9-0.3,1.7-0.6,2.4-0.9c0.7-0.3,1.4-0.6,2.1-0.9c0.7-0.3,1.5-0.4,2.4-0.4         c1.5,0,2.7,0.6,3.8,1.7c1.1,1.2,1.6,2.6,1.6,4.2c0,2.3-1.6,4.1-4.8,5.4c-3.2,1.3-7.3,2-12.2,2c-7.2,0-12.5-1.6-16-4.9         c-3.4-3.2-5.2-7.9-5.2-14.1v-45.7H379.6z"
   id="path12"
   style="fill:#ffffff;fill-opacity:1" />
    <path
   class="st0000"
   d="M500.5,137.1c0,3.5-2.1,5.2-6.4,5.2h-53.2c0,7.8,2.1,13.9,6.3,18.1c4.2,4.3,10.2,6.4,17.9,6.4         c3,0,5.7-0.4,7.9-1.1c2.2-0.7,4.1-1.6,5.7-2.6c1.6-1,2.8-2.1,3.8-3.1c1-1.1,1.8-2,2.4-2.8c0.7-1,1.4-1.7,2.1-2.2         c0.7-0.5,1.7-0.7,3-0.7c1.5,0,2.9,0.4,4.3,1.3c1.4,0.9,2.1,2,2.1,3.5c0,1.3-0.6,2.8-1.7,4.5c-0.9,1.4-2.2,2.8-3.7,4.4         c-1.5,1.6-3.4,3.1-5.8,4.6c-2.3,1.5-5.2,2.7-8.5,3.6c-3.3,1-7.2,1.5-11.7,1.5c-5.8,0-11.1-0.9-15.9-2.8c-4.7-1.9-8.8-4.5-12.1-8         c-3.3-3.4-5.9-7.5-7.7-12.3c-1.8-4.8-2.7-10-2.7-15.7c0-5.8,0.9-11.1,2.7-15.8c1.8-4.7,4.3-8.8,7.6-12.2c3.3-3.4,7.2-6.1,11.9-8         c4.6-1.9,9.8-2.8,15.6-2.8c5.8,0,11,0.9,15.5,2.8c4.5,1.9,8.2,4.5,11.3,7.8c3,3.3,5.3,7.3,6.9,11.8         C499.7,127,500.5,131.9,500.5,137.1z M464.6,110.6c-3.7,0-6.8,0.6-9.5,1.7c-2.7,1.1-5,2.6-6.9,4.5s-3.4,4.1-4.5,6.7         c-1.1,2.6-1.8,5.2-2.1,8h45.5c-0.3-2.7-1-5.3-2-7.9c-1-2.6-2.4-4.8-4.2-6.7c-1.8-1.9-4.1-3.4-6.8-4.6         C471.4,111.2,468.2,110.6,464.6,110.6z"
   id="path14"
   style="fill:#ffffff;fill-opacity:1" />
    <path
   class="st0000"
   d="M602.4,100c8.2,0,14.8,2.1,19.6,6.2c4.8,4.1,7.2,10.4,7.2,18.9v46.1c0,3.4-2.1,5.1-6.4,5.1         c-4.6,0-6.9-1.7-6.9-5.1V129c0-2.7-0.2-5.2-0.7-7.4c-0.5-2.2-1.3-4.1-2.6-5.6c-1.3-1.5-2.9-2.7-5.1-3.5c-2.1-0.8-4.9-1.2-8.2-1.2         c-4.1,0-7.5,0.9-10.2,2.6c-2.7,1.7-4.8,4-6.4,6.7c-1.6,2.7-2.7,5.8-3.4,9.1c-0.7,3.4-1,6.7-1,10v31.5c0,3.4-2.1,5.1-6.4,5.1         c-4.6,0-6.9-1.7-6.9-5.1V129c0-2.7-0.2-5.2-0.7-7.4c-0.5-2.2-1.3-4.1-2.6-5.6c-1.3-1.5-2.9-2.7-5.1-3.5c-2.1-0.8-4.9-1.2-8.2-1.2         c-4.1,0-7.5,0.8-10.2,2.5c-2.7,1.7-4.8,3.9-6.4,6.6c-1.6,2.7-2.7,5.8-3.4,9.1c-0.7,3.4-1,6.7-1,10v30.9c0,2.2-0.6,3.7-1.8,4.6         c-1.2,0.8-2.8,1.2-4.9,1.2c-2.1,0-3.7-0.4-4.8-1.2c-1.1-0.8-1.7-2.3-1.7-4.6V107c0-2.1,0.5-3.6,1.6-4.3c1-0.8,2.6-1.2,4.7-1.2         c2.1,0,3.7,0.4,4.8,1.2c1.1,0.8,1.6,2.2,1.6,4.3v6.8c0.1-0.4,0.5-1.3,1.3-2.6c0.8-1.5,2.2-3.1,4.1-4.8c1.9-1.6,4.4-3.1,7.6-4.4         c3.2-1.3,7.2-2,12-2c6.4,0,11.5,1.2,15.6,3.6c4,2.4,6.9,5.6,8.7,9.6c2.2-4,5.6-7.2,10.2-9.6C590.7,101.2,596.1,100,602.4,100z"
   id="path16"
   style="fill:#ffffff;fill-opacity:1" />
</g>
<path
   class="st11111"
   d="M138.9,105L72.6,36.6c-4.4-4.5-11.9-5-16.8-1.1C29.7,56.2,16.9,73.9,2.4,106.4c-6.7,15.1,1.4,28.5,17.9,29.7     l103,20.4c6,0.4,12.3-3.9,13.9-9.7l6.5-23.4C145.2,117.6,143.1,109.3,138.9,105z"
   id="path20"
   style="fill:#ffffff;fill-opacity:1" />
<path
   class="st222222"
   d="M162.2,72.5l-14.7-59.7C145.7,5.6,138.3-0.4,131,0C116.9,0.9,103,4.1,88,10.4c-6.8,2.8-8.2,10.1-3.5,15.7     l59.2,70.4c4.7,5.6,11.5,5.4,15.1-0.5C162.4,90.1,163.9,79.6,162.2,72.5z"
   id="path22"
   style="fill:#ffffff;fill-opacity:1" />
<path
   class="st333333"
   d="M192.1,70.8l8.7-26.3c3-9.1,0.2-22.2-7.1-28.5c-5-4.3-10.5-8.6-16.1-12.3c-8-5.3-14.7-0.6-14.1,9l2.9,45     c0.6,9.6,5.4,20.1,10.7,23.4C182.4,84.5,189.1,79.9,192.1,70.8z"
   id="path24"
   style="fill:#ffffff;fill-opacity:1" />
<path
   class="st0000"
   d="M232.5,217.2c0,1.8-0.3,3.4-0.8,4.9c-0.5,1.5-1.3,2.7-2.3,3.7c-1,1-2.2,1.8-3.6,2.4c-1.4,0.6-3,0.9-4.7,0.9     c-1.8,0-3.4-0.3-4.8-0.8c-1.4-0.6-2.6-1.4-3.6-2.4c-1-1-1.7-2.3-2.3-3.7c-0.5-1.5-0.8-3.1-0.8-4.9c0-1.8,0.3-3.4,0.8-4.8     s1.3-2.7,2.4-3.7c1-1,2.2-1.8,3.6-2.4c1.4-0.6,3-0.8,4.7-0.8c1.7,0,3.3,0.3,4.7,0.8c1.4,0.6,2.6,1.3,3.6,2.3c1,1,1.8,2.2,2.3,3.7     C232.2,213.8,232.5,215.4,232.5,217.2z M226.5,217.4c0-2.1-0.5-3.8-1.4-5c-0.9-1.2-2.3-1.8-4-1.8c-1.7,0-3,0.6-3.9,1.8     c-1,1.2-1.4,2.9-1.4,5c0,2.1,0.5,3.8,1.4,5c1,1.2,2.3,1.8,3.9,1.8c1.7,0,3.1-0.6,4-1.8C226,221.2,226.5,219.5,226.5,217.4z"
   id="path26"
   style="fill:#ffffff;fill-opacity:1" />
<path
   class="st0000"
   d="M249.8,205.5c1.5,0,2.7,0.2,3.7,0.7s1.8,1.2,2.6,2c0.7,1,1.2,2.1,1.3,3.2c0.1,1.2,0.2,2.3,0.2,3.4v11.4     c0,0.8-0.2,1.4-0.7,1.8c-0.5,0.4-1.2,0.6-2.2,0.6c-0.9,0-1.6-0.2-2.1-0.5s-0.8-1-0.8-1.8V215c0-1.3-0.1-2.2-0.4-2.8     c-0.3-0.6-0.7-1-1.2-1.2c-0.5-0.2-1.2-0.3-1.9-0.3c-0.8,0-1.4,0.1-2,0.4c-0.5,0.2-1,0.5-1.4,0.9c-0.4,0.4-0.7,0.7-0.9,1.1     c-0.2,0.4-0.3,0.8-0.4,1.1c-0.1,0.5-0.2,1.1-0.2,1.8c0,0.7,0,1.2,0,1.7v8.5c0,0.9-0.2,1.5-0.7,1.9c-0.5,0.4-1.3,0.6-2.3,0.6     c-0.9,0-1.6-0.2-2.1-0.6s-0.8-1-0.8-1.8v-17.7c0-0.8,0.2-1.4,0.7-1.9c0.4-0.5,1.2-0.7,2.3-0.7c0.7,0,1.4,0.2,2,0.5     c0.6,0.3,0.9,1,0.9,2v0.5c0.6-0.9,1.5-1.7,2.6-2.3C246.9,205.9,248.2,205.5,249.8,205.5z"
   id="path28"
   style="fill:#ffffff;fill-opacity:1" />
<path
   class="st0000"
   d="M276,205.5c1.5,0,2.7,0.2,3.7,0.7c1,0.5,1.8,1.2,2.6,2c0.7,1,1.2,2.1,1.3,3.2c0.1,1.2,0.2,2.3,0.2,3.4v11.4     c0,0.8-0.2,1.4-0.7,1.8c-0.5,0.4-1.2,0.6-2.2,0.6c-0.9,0-1.6-0.2-2.1-0.5s-0.8-1-0.8-1.8V215c0-1.3-0.1-2.2-0.4-2.8     c-0.3-0.6-0.7-1-1.2-1.2c-0.5-0.2-1.2-0.3-1.9-0.3c-0.8,0-1.4,0.1-2,0.4c-0.5,0.2-1,0.5-1.4,0.9c-0.4,0.4-0.7,0.7-0.9,1.1     c-0.2,0.4-0.3,0.8-0.4,1.1c-0.1,0.5-0.2,1.1-0.2,1.8c0,0.7,0,1.2,0,1.7v8.5c0,0.9-0.2,1.5-0.7,1.9c-0.5,0.4-1.3,0.6-2.3,0.6     c-0.9,0-1.6-0.2-2.1-0.6s-0.8-1-0.8-1.8v-17.7c0-0.8,0.2-1.4,0.7-1.9c0.4-0.5,1.2-0.7,2.3-0.7c0.7,0,1.4,0.2,2,0.5     c0.6,0.3,0.9,1,0.9,2v0.5c0.6-0.9,1.5-1.7,2.6-2.3C273.1,205.9,274.5,205.5,276,205.5z"
   id="path30"
   style="fill:#ffffff;fill-opacity:1" />
<path
   class="st0000"
   d="M299.9,205.5c3.1,0,5.6,1,7.5,2.9c1.8,1.9,2.8,4.7,2.8,8.3c0,0.8-0.3,1.4-0.8,1.7c-0.5,0.3-1.2,0.5-2.1,0.5     h-12.5c0.3,3.5,2.2,5.3,5.7,5.3c0.9,0,1.7-0.2,2.3-0.5c0.6-0.3,1.2-0.6,1.6-0.8c0.4-0.2,0.8-0.5,1.2-0.7s0.8-0.3,1.3-0.3     c0.6,0,1.1,0.3,1.6,0.9c0.5,0.6,0.7,1.2,0.7,1.9c0,0.5-0.2,1-0.5,1.4s-0.8,0.8-1.5,1.2c-0.9,0.6-2,1-3.3,1.3     c-1.3,0.3-2.5,0.5-3.8,0.5c-1.8,0-3.4-0.2-4.8-0.7c-1.4-0.5-2.7-1.2-3.7-2.1s-1.8-2.1-2.3-3.6c-0.5-1.4-0.8-3.2-0.8-5.1     c0-1.5,0.2-3,0.6-4.4s1.1-2.7,2-3.8c0.9-1.1,2.1-2,3.5-2.7S298,205.5,299.9,205.5z M304.2,214.5c0-0.5-0.1-1-0.3-1.6     c-0.2-0.5-0.4-1-0.8-1.4c-0.4-0.4-0.8-0.8-1.4-1c-0.5-0.3-1.2-0.4-2-0.4c-1.2,0-2.3,0.4-3.2,1.1s-1.4,1.9-1.6,3.3H304.2z"
   id="path32"
   style="fill:#ffffff;fill-opacity:1" />
<path
   class="st0000"
   d="M324.8,205.5c1.6,0,2.9,0.2,4.1,0.6s2.1,0.9,2.9,1.5s1.4,1.2,1.7,1.9c0.4,0.7,0.6,1.3,0.6,1.8     c0,0.7-0.3,1.4-0.8,1.8c-0.5,0.5-1.2,0.7-1.9,0.7c-0.5,0-1-0.2-1.3-0.5c-0.3-0.3-0.7-0.7-1.1-1.1c-0.7-0.6-1.3-1.1-1.9-1.4     c-0.6-0.4-1.4-0.5-2.4-0.5c-1.2,0-2.1,0.3-2.8,0.8s-1.2,1.1-1.5,1.9s-0.6,1.5-0.7,2.3c-0.1,0.8-0.2,1.5-0.2,2c0,0.6,0.1,1.3,0.2,2.1     s0.4,1.5,0.8,2.2s0.9,1.2,1.6,1.7c0.7,0.5,1.6,0.7,2.7,0.7c1.1,0,1.9-0.2,2.5-0.5s1.3-0.9,2-1.6c0.3-0.3,0.6-0.6,0.9-0.9     c0.3-0.2,0.7-0.4,1.2-0.4c0.3,0,0.7,0.1,1,0.2c0.3,0.1,0.6,0.3,0.9,0.6s0.4,0.5,0.6,0.8c0.2,0.3,0.2,0.6,0.2,1     c0,0.6-0.2,1.2-0.7,1.9c-0.4,0.7-1.1,1.3-1.9,1.9c-0.8,0.6-1.8,1.1-3,1.4c-1.2,0.4-2.5,0.6-4.1,0.6c-2,0-3.7-0.3-5.1-1     s-2.5-1.5-3.4-2.6c-0.9-1.1-1.5-2.3-1.9-3.7s-0.6-2.8-0.6-4.3c0-1.9,0.3-3.6,0.8-5.2c0.5-1.5,1.3-2.8,2.3-3.8c1-1,2.2-1.8,3.6-2.4     C321.6,205.8,323.1,205.5,324.8,205.5z"
   id="path34"
   style="fill:#ffffff;fill-opacity:1" />
<path
   class="st0000"
   d="M196.5,205.5c1.6,0,2.9,0.2,4.1,0.6s2.1,0.9,2.9,1.5s1.4,1.2,1.7,1.9c0.4,0.7,0.6,1.3,0.6,1.8     c0,0.7-0.3,1.4-0.8,1.8c-0.5,0.5-1.2,0.7-1.9,0.7c-0.5,0-1-0.2-1.3-0.5c-0.3-0.3-0.7-0.7-1.1-1.1c-0.7-0.6-1.3-1.1-1.9-1.4     c-0.6-0.4-1.4-0.5-2.4-0.5c-1.2,0-2.1,0.3-2.8,0.8s-1.2,1.1-1.5,1.9s-0.6,1.5-0.7,2.3c-0.1,0.8-0.2,1.5-0.2,2c0,0.6,0.1,1.3,0.2,2.1     s0.4,1.5,0.8,2.2s0.9,1.2,1.6,1.7c0.7,0.5,1.6,0.7,2.7,0.7c1.1,0,1.9-0.2,2.5-0.5s1.3-0.9,2-1.6c0.3-0.3,0.6-0.6,0.9-0.9     c0.3-0.2,0.7-0.4,1.2-0.4c0.3,0,0.7,0.1,1,0.2c0.3,0.1,0.6,0.3,0.9,0.6s0.4,0.5,0.6,0.8c0.2,0.3,0.2,0.6,0.2,1     c0,0.6-0.2,1.2-0.7,1.9c-0.4,0.7-1.1,1.3-1.9,1.9c-0.8,0.6-1.8,1.1-3,1.4c-1.2,0.4-2.5,0.6-4.1,0.6c-2,0-3.7-0.3-5.1-1     s-2.5-1.5-3.4-2.6c-0.9-1.1-1.5-2.3-1.9-3.7s-0.6-2.8-0.6-4.3c0-1.9,0.3-3.6,0.8-5.2c0.5-1.5,1.3-2.8,2.3-3.8c1-1,2.2-1.8,3.6-2.4     C193.3,205.8,194.9,205.5,196.5,205.5z"
   id="path36"
   style="fill:#ffffff;fill-opacity:1" />
<path
   class="st0000"
   d="M344.9,229.1c-1.9,0-3.4-0.5-4.5-1.5s-1.7-2.6-1.7-4.7v-12.2h-1.8c-0.5,0-0.8-0.3-1.1-0.8     c-0.2-0.5-0.3-1-0.3-1.5c0-0.5,0.1-1,0.3-1.4s0.6-0.7,1.1-0.7h1.9v-4.1c0-0.5,0.1-1,0.4-1.3s0.6-0.6,0.9-0.9s0.8-0.4,1.2-0.5     s0.9-0.2,1.3-0.2c0.7,0,1.3,0.2,1.6,0.5s0.5,0.8,0.5,1.4v5h3.5c0.6,0,1,0.2,1.2,0.6s0.3,0.9,0.3,1.5c0,1.5-0.5,2.3-1.6,2.3h-3.5     v11.5c0,0.7,0.1,1.1,0.4,1.4c0.2,0.3,0.6,0.4,1.1,0.4c0.3,0,0.6,0,0.9-0.2s0.5-0.2,0.7-0.3l0.7-0.3c0.2-0.1,0.5-0.2,0.8-0.2     c0.7,0,1.3,0.3,1.6,0.9c0.3,0.6,0.5,1.2,0.5,1.8c0,0.5-0.1,0.9-0.2,1.2c-0.2,0.4-0.4,0.7-0.8,0.9c-0.6,0.4-1.3,0.7-2.2,0.9     S346.1,229.1,344.9,229.1z"
   id="path38"
   style="fill:#ffffff;fill-opacity:1" />
<path
   class="st0000"
   d="M357.9,197.2c0.8,0,1.6,0.3,2.3,0.8c0.7,0.5,1.1,1.3,1.1,2.4c0,1-0.3,1.7-0.9,2.3c-0.6,0.6-1.4,0.9-2.4,0.9     c-1,0-1.8-0.3-2.4-0.9c-0.6-0.6-0.9-1.3-0.9-2.3c0-0.9,0.3-1.7,0.9-2.3C356,197.5,356.9,197.2,357.9,197.2z M357.9,228.7     c-2,0-3-0.8-3-2.3v-17.7c0-0.8,0.2-1.5,0.7-2c0.5-0.5,1.3-0.7,2.4-0.7c0.9,0,1.6,0.2,2.1,0.6c0.5,0.4,0.8,1,0.8,1.8v17.8     c0,0.9-0.3,1.5-0.8,1.8S358.8,228.7,357.9,228.7z"
   id="path40"
   style="fill:#ffffff;fill-opacity:1" />
<path
   class="st0000"
   d="M379.2,205.5c1.5,0,2.7,0.2,3.7,0.7c1,0.5,1.8,1.2,2.6,2c0.7,1,1.2,2.1,1.3,3.2c0.1,1.2,0.2,2.3,0.2,3.4v11.4     c0,0.8-0.2,1.4-0.7,1.8c-0.5,0.4-1.2,0.6-2.2,0.6c-0.9,0-1.6-0.2-2.1-0.5s-0.8-1-0.8-1.8V215c0-1.3-0.1-2.2-0.4-2.8     c-0.3-0.6-0.7-1-1.2-1.2c-0.5-0.2-1.2-0.3-1.9-0.3c-0.8,0-1.4,0.1-2,0.4c-0.5,0.2-1,0.5-1.4,0.9c-0.4,0.4-0.7,0.7-0.9,1.1     c-0.2,0.4-0.3,0.8-0.4,1.1c-0.1,0.5-0.2,1.1-0.2,1.8c0,0.7,0,1.2,0,1.7v8.5c0,0.9-0.2,1.5-0.7,1.9c-0.5,0.4-1.3,0.6-2.3,0.6     c-0.9,0-1.6-0.2-2.1-0.6c-0.5-0.4-0.8-1-0.8-1.8v-17.7c0-0.8,0.2-1.4,0.7-1.9c0.4-0.5,1.2-0.7,2.3-0.7c0.7,0,1.4,0.2,2,0.5     c0.6,0.3,0.9,1,0.9,2v0.5c0.6-0.9,1.5-1.7,2.6-2.3C376.3,205.9,377.7,205.5,379.2,205.5z"
   id="path42"
   style="fill:#ffffff;fill-opacity:1" />
<path
   class="st0000"
   d="M413.7,227c0,1.9-0.2,3.6-0.7,4.9c-0.5,1.4-1.2,2.5-2.1,3.4s-2.1,1.5-3.4,2c-1.4,0.4-2.9,0.6-4.7,0.6     c-2.1,0-3.7-0.2-4.9-0.5c-1.2-0.4-2.1-0.8-2.7-1.2c-0.7-0.5-1-1.1-1-1.9c0-0.7,0.2-1.4,0.6-2c0.4-0.6,1-0.9,1.8-0.9     c0.4,0,0.8,0.1,1.2,0.3c0.3,0.2,0.7,0.4,1.2,0.6s0.9,0.4,1.5,0.6s1.4,0.3,2.4,0.3c1.6,0,2.8-0.4,3.7-1.3c0.9-0.9,1.4-2.2,1.4-4v-2.4     c-0.6,0.7-1.4,1.4-2.5,2s-2.4,0.9-4,0.9c-1.5,0-2.8-0.3-4-0.8c-1.2-0.5-2.2-1.3-3-2.3c-0.8-1-1.4-2.2-1.9-3.5     c-0.4-1.4-0.7-2.9-0.7-4.7c0-1.7,0.2-3.3,0.7-4.7c0.5-1.4,1.1-2.6,1.9-3.6c0.8-1,1.8-1.8,3-2.3s2.5-0.8,4-0.8c0.9,0,1.7,0.1,2.3,0.3     c0.7,0.2,1.3,0.5,1.8,0.8s1,0.6,1.3,1c0.4,0.4,0.7,0.7,0.9,1v-0.9c0-0.7,0.3-1.2,0.8-1.5c0.5-0.3,1.2-0.4,1.9-0.4     c1.1,0,1.8,0.3,2.3,0.8c0.5,0.5,0.7,1.1,0.7,1.9V227z M408.1,217.1c0-1.9-0.4-3.5-1.2-4.7c-0.8-1.2-2.1-1.8-3.8-1.8     c-1.5,0-2.7,0.6-3.6,1.8c-0.8,1.2-1.3,2.7-1.3,4.7c0,1.9,0.4,3.5,1.3,4.6c0.8,1.1,2,1.7,3.5,1.7c1.7,0,3-0.5,3.8-1.6     C407.6,220.6,408.1,219.1,408.1,217.1z"
   id="path44"
   style="fill:#ffffff;fill-opacity:1" />
<path
   class="st0000"
   d="M448.8,216.8c0,0.4-0.1,0.6-0.3,0.8c-0.2,0.2-0.5,0.2-0.8,0.2h-16c0.1,2.9,0.7,5.1,2,6.7     c1.3,1.6,3.2,2.4,5.6,2.4c1,0,1.8-0.1,2.5-0.3s1.2-0.5,1.7-0.8c0.5-0.3,0.9-0.7,1.2-1.1c0.3-0.4,0.6-0.8,0.8-1.1     c0.2-0.2,0.3-0.4,0.4-0.5c0.1-0.1,0.3-0.2,0.5-0.2c0.3,0,0.6,0.1,0.9,0.3s0.4,0.4,0.4,0.7c0,0.3-0.1,0.7-0.4,1.1     c-0.3,0.4-0.6,0.8-1,1.3s-0.9,0.9-1.6,1.3c-0.6,0.4-1.4,0.8-2.3,1.1c-0.9,0.3-1.9,0.4-3.1,0.4c-1.7,0-3.2-0.3-4.4-0.8     s-2.3-1.3-3.2-2.4c-0.9-1-1.5-2.2-2-3.6c-0.4-1.4-0.7-3-0.7-4.7c0-1.7,0.2-3.2,0.7-4.6s1.2-2.6,2-3.6s2-1.8,3.2-2.4s2.6-0.9,4.2-0.9     c1.6,0,3,0.3,4.2,0.8s2.2,1.3,3,2.3c0.8,1,1.4,2.1,1.8,3.4C448.6,213.9,448.8,215.3,448.8,216.8z M439.1,208.3     c-1.2,0-2.2,0.2-3.1,0.6c-0.9,0.4-1.6,0.9-2.2,1.6s-1.1,1.5-1.4,2.4c-0.3,0.9-0.6,1.9-0.6,2.9h14.6c-0.1-1-0.3-2-0.6-2.9     c-0.3-0.9-0.8-1.7-1.4-2.4c-0.6-0.7-1.3-1.2-2.2-1.7S440.2,208.3,439.1,208.3z"
   id="path46"
   style="fill:#ffffff;fill-opacity:1" />
<path
   class="st0000"
   d="M451.8,209.2c-0.1-0.2-0.2-0.5-0.3-0.8c-0.1-0.3-0.2-0.5-0.2-0.8c0-0.4,0.2-0.7,0.5-0.8     c0.3-0.2,0.7-0.3,1.1-0.3c0.4,0,0.8,0.3,1,0.9l7.2,18.3l7.6-18.3c0.1-0.3,0.3-0.5,0.5-0.7c0.2-0.1,0.4-0.2,0.6-0.2     c0.3,0,0.7,0.1,1,0.3s0.5,0.4,0.5,0.8c0,0.3-0.1,0.7-0.4,1.3l-8.2,18.9c-0.1,0.3-0.3,0.5-0.6,0.7s-0.6,0.2-1.1,0.2     c-0.5,0-0.8-0.1-1.1-0.2c-0.2-0.1-0.4-0.3-0.5-0.6L451.8,209.2z"
   id="path48"
   style="fill:#ffffff;fill-opacity:1" />
<path
   class="st0000"
   d="M493.8,216.8c0,0.4-0.1,0.6-0.3,0.8c-0.2,0.2-0.5,0.2-0.8,0.2h-16c0.1,2.9,0.7,5.1,2,6.7     c1.3,1.6,3.2,2.4,5.6,2.4c1,0,1.8-0.1,2.5-0.3s1.2-0.5,1.7-0.8c0.5-0.3,0.9-0.7,1.2-1.1c0.3-0.4,0.6-0.8,0.8-1.1     c0.2-0.2,0.3-0.4,0.4-0.5c0.1-0.1,0.3-0.2,0.5-0.2c0.3,0,0.6,0.1,0.9,0.3s0.4,0.4,0.4,0.7c0,0.3-0.1,0.7-0.4,1.1     c-0.3,0.4-0.6,0.8-1,1.3s-0.9,0.9-1.6,1.3c-0.6,0.4-1.4,0.8-2.3,1.1c-0.9,0.3-1.9,0.4-3.1,0.4c-1.7,0-3.2-0.3-4.4-0.8     s-2.3-1.3-3.2-2.4c-0.9-1-1.5-2.2-2-3.6c-0.4-1.4-0.7-3-0.7-4.7c0-1.7,0.2-3.2,0.7-4.6s1.2-2.6,2-3.6s2-1.8,3.2-2.4s2.6-0.9,4.2-0.9     c1.6,0,3,0.3,4.2,0.8s2.2,1.3,3,2.3c0.8,1,1.4,2.1,1.8,3.4C493.6,213.9,493.8,215.3,493.8,216.8z M484.1,208.3     c-1.2,0-2.2,0.2-3.1,0.6c-0.9,0.4-1.6,0.9-2.2,1.6s-1.1,1.5-1.4,2.4c-0.3,0.9-0.6,1.9-0.6,2.9h14.6c-0.1-1-0.3-2-0.6-2.9     c-0.3-0.9-0.8-1.7-1.4-2.4c-0.6-0.7-1.3-1.2-2.2-1.7S485.3,208.3,484.1,208.3z"
   id="path50"
   style="fill:#ffffff;fill-opacity:1" />
<path
   class="st0000"
   d="M501.3,227.4c0,0.5-0.1,0.8-0.3,1s-0.5,0.3-0.9,0.3c-0.4,0-0.7-0.1-0.9-0.3c-0.2-0.2-0.3-0.5-0.3-1v-19.7     c0-0.5,0.1-0.8,0.3-0.9c0.2-0.2,0.5-0.2,0.8-0.2c0.4,0,0.7,0.1,0.9,0.2s0.3,0.5,0.3,0.9v4c0.4-1,1-1.8,1.6-2.5     c0.6-0.7,1.3-1.2,1.9-1.7c0.7-0.4,1.3-0.7,2-0.9c0.7-0.2,1.3-0.3,1.8-0.3c0.6,0,1,0.1,1.3,0.3s0.4,0.6,0.4,1.1     c0,0.5-0.1,0.9-0.3,1.1s-0.6,0.3-1,0.3c-2.3,0-4.1,0.8-5.5,2.3c-1.3,1.5-2,3.8-2,6.8V227.4z"
   id="path52"
   style="fill:#ffffff;fill-opacity:1" />
<path
   class="st0000"
   d="M519.4,236.6c-0.3,0.6-0.6,0.9-1.1,0.9c-0.3,0-0.6-0.1-0.9-0.3c-0.2-0.2-0.4-0.5-0.4-0.8c0-0.2,0.1-0.6,0.3-1.1     l3.2-7.2l-8.2-19.5c-0.1-0.1-0.1-0.3-0.2-0.5c-0.1-0.2-0.1-0.4-0.1-0.5c0-0.4,0.2-0.7,0.5-0.8c0.3-0.2,0.7-0.3,1.1-0.3     c0.4,0,0.7,0.3,0.9,0.9l7.3,17.5l7.6-17.5c0.2-0.6,0.5-0.9,0.9-0.9c0.4,0,0.7,0.1,1,0.3s0.5,0.4,0.5,0.8c0,0.1,0,0.3-0.1,0.5     s-0.1,0.4-0.2,0.5L519.4,236.6z"
   id="path54"
   style="fill:#ffffff;fill-opacity:1" />
<path
   class="st0000"
   d="M535,209c-0.3,0-0.6-0.1-0.7-0.3c-0.1-0.2-0.2-0.5-0.2-0.8c0-0.3,0.1-0.6,0.2-0.8c0.1-0.2,0.3-0.3,0.7-0.3h2.7     v-4.9c0-0.5,0-0.8,0.1-1.1s0.2-0.4,0.4-0.5c0.2-0.1,0.5-0.2,0.7-0.3s0.5-0.1,0.7-0.1c0.4,0,0.6,0.2,0.6,0.7v6.1h4.9     c0.3,0,0.6,0.1,0.7,0.3s0.2,0.5,0.2,0.8c0,0.3-0.1,0.6-0.2,0.8s-0.3,0.3-0.7,0.3h-4.9v13.9c0,1.5,0.3,2.6,0.8,3.1s1.4,0.8,2.6,0.8     c0.5,0,0.9,0,1.2-0.2c0.3-0.1,0.6-0.2,0.9-0.4c0.1-0.1,0.3-0.1,0.4-0.2c0.1-0.1,0.3-0.1,0.4-0.1c0.2,0,0.4,0.1,0.6,0.4     s0.3,0.6,0.3,0.9c0,0.6-0.4,1-1.2,1.3s-1.8,0.5-3,0.5c-1.9,0-3.2-0.5-4.1-1.4s-1.3-2.2-1.3-4V209H535z"
   id="path56"
   style="fill:#ffffff;fill-opacity:1" />
<path
   class="st0000"
   d="M553.7,227.4c0,0.5-0.1,0.8-0.3,1s-0.5,0.3-0.9,0.3s-0.7-0.1-0.9-0.3c-0.2-0.2-0.3-0.5-0.3-1v-28     c0-0.5,0.1-0.8,0.4-0.9c0.2-0.2,0.5-0.2,0.9-0.2c0.4,0,0.7,0.1,0.9,0.2c0.2,0.2,0.4,0.5,0.4,0.9v12c0.2-0.4,0.4-0.9,0.8-1.5     c0.4-0.6,0.9-1.2,1.5-1.8s1.4-1.1,2.4-1.5c1-0.4,2.1-0.6,3.4-0.6c2.2,0,4,0.6,5.3,1.8s2,3.1,2,5.7v14c0,0.7-0.4,1-1.2,1     c-0.9,0-1.3-0.3-1.3-1v-13.1c0-1.9-0.4-3.4-1.2-4.5c-0.8-1-2.2-1.5-4.2-1.5c-1.3,0-2.5,0.3-3.5,0.9c-1,0.6-1.8,1.3-2.4,2.2     c-0.6,0.9-1.1,1.9-1.4,3.1c-0.3,1.1-0.4,2.2-0.4,3.3V227.4z"
   id="path58"
   style="fill:#ffffff;fill-opacity:1" />
<path
   class="st0000"
   d="M575.3,200.1c0-0.6,0.2-1.1,0.5-1.4c0.3-0.3,0.8-0.5,1.2-0.5s0.9,0.2,1.2,0.5c0.3,0.3,0.5,0.8,0.5,1.4     c0,0.6-0.2,1.1-0.5,1.4s-0.8,0.5-1.2,0.5s-0.9-0.2-1.2-0.5S575.3,200.7,575.3,200.1z M575.8,207.8c0-0.5,0.1-0.8,0.3-1     c0.2-0.2,0.5-0.3,0.9-0.3s0.7,0.1,0.9,0.3s0.3,0.5,0.3,1v19.6c0,0.5-0.1,0.8-0.3,1s-0.5,0.3-0.9,0.3s-0.7-0.1-0.9-0.3     c-0.2-0.2-0.3-0.5-0.3-1V207.8z"
   id="path60"
   style="fill:#ffffff;fill-opacity:1" />
<path
   class="st0000"
   d="M587.3,227.4c0,0.5-0.1,0.8-0.3,1s-0.5,0.3-0.9,0.3s-0.7-0.1-0.9-0.3c-0.2-0.2-0.3-0.5-0.3-1v-19.7     c0-0.5,0.1-0.8,0.3-0.9c0.2-0.2,0.5-0.2,0.8-0.2c0.4,0,0.7,0.1,0.9,0.2s0.3,0.5,0.3,0.9v3.9c0.2-0.4,0.4-0.9,0.8-1.5     c0.4-0.6,0.9-1.2,1.6-1.8c0.7-0.6,1.5-1.1,2.4-1.5c1-0.4,2.1-0.6,3.4-0.6c2.2,0,4,0.6,5.3,1.8s2,3.1,2,5.7v14c0,0.7-0.4,1-1.2,1     c-0.9,0-1.3-0.3-1.3-1v-13.1c0-1.9-0.4-3.4-1.2-4.5c-0.8-1-2.2-1.5-4.2-1.5c-1.3,0-2.5,0.3-3.5,0.9c-1,0.6-1.8,1.3-2.4,2.2     c-0.6,0.9-1.1,1.9-1.4,3.1c-0.3,1.1-0.4,2.2-0.4,3.3V227.4z"
   id="path62"
   style="fill:#ffffff;fill-opacity:1" />
<path
   class="st0000"
   d="M627.8,228.7c0,3.1-0.9,5.4-2.7,7c-1.8,1.5-4.2,2.3-7.1,2.3c-1.2,0-2.3-0.1-3.3-0.3c-1-0.2-1.9-0.5-2.6-0.8     c-0.7-0.3-1.2-0.6-1.6-0.9c-0.4-0.3-0.6-0.7-0.6-1.1c0-0.3,0.1-0.7,0.3-1s0.5-0.5,0.8-0.5c0.3,0,0.5,0.1,0.8,0.3s0.6,0.4,1,0.6     c0.6,0.3,1.3,0.7,2.1,1c0.8,0.3,1.8,0.5,3,0.5c1,0,1.9-0.1,2.8-0.4c0.9-0.3,1.6-0.7,2.3-1.2c0.7-0.6,1.2-1.3,1.6-2.2     c0.4-0.9,0.6-2,0.6-3.4v-3.8c-0.8,1.5-1.8,2.7-3.1,3.4c-1.3,0.7-2.8,1-4.6,1c-1.5,0-2.9-0.3-4-0.9c-1.2-0.6-2.2-1.4-3-2.4     c-0.8-1-1.4-2.2-1.8-3.6c-0.4-1.4-0.6-3-0.6-4.6c0-1.7,0.2-3.2,0.6-4.6s1.1-2.6,1.9-3.6c0.8-1,1.8-1.8,3-2.3s2.6-0.8,4.1-0.8     c1.8,0,3.4,0.4,4.6,1.1c1.2,0.7,2.2,1.7,3,2.9v-2.4c0-0.5,0.1-0.8,0.3-1s0.5-0.3,0.9-0.3s0.7,0.1,0.9,0.3s0.3,0.5,0.3,1V228.7z      M610.8,217.7c0,1.3,0.2,2.6,0.5,3.7s0.8,2.1,1.4,2.9c0.6,0.8,1.4,1.4,2.3,1.8c0.9,0.4,2,0.6,3.1,0.6c1.2,0,2.3-0.2,3.2-0.7     c0.9-0.5,1.7-1.1,2.3-1.9c0.6-0.8,1.1-1.8,1.4-2.9c0.3-1.1,0.5-2.4,0.5-3.7c0-2.9-0.7-5.1-2.1-6.7c-1.4-1.6-3.2-2.4-5.6-2.4     c-1.2,0-2.2,0.2-3.1,0.7c-0.9,0.4-1.6,1.1-2.2,1.9s-1,1.8-1.3,2.9C611,215,610.8,216.3,610.8,217.7z"
   id="path64"
   style="fill:#ffffff;fill-opacity:1" />
</svg>