<?xml version="1.0" encoding="UTF-8" standalone="no"?>
<svg
   xmlns:dc="http://purl.org/dc/elements/1.1/"
   xmlns:cc="http://creativecommons.org/ns#"
   xmlns:rdf="http://www.w3.org/1999/02/22-rdf-syntax-ns#"
   xmlns:svg="http://www.w3.org/2000/svg"
   xmlns="http://www.w3.org/2000/svg"
   xmlns:sodipodi="http://sodipodi.sourceforge.net/DTD/sodipodi-0.dtd"
   xmlns:inkscape="http://www.inkscape.org/namespaces/inkscape"
   version="1.1"
   x="0px"
   y="0px"
   width="256"
   height="256"
   viewBox="0 0 807.296 806.6543"
   xml:space="preserve"
   id="svg66"
   sodipodi:docname="favicon.svg"
   inkscape:version="0.92.5 (2060ec1f9f, 2020-04-08)"><metadata
   id="metadata70"><rdf:RDF><cc:Work
       rdf:about=""><dc:format>image/svg+xml</dc:format><dc:type
         rdf:resource="http://purl.org/dc/dcmitype/StillImage" /><dc:title></dc:title></cc:Work></rdf:RDF></metadata><sodipodi:namedview
   pagecolor="#ffffff"
   bordercolor="#666666"
   borderopacity="1"
   objecttolerance="10"
   gridtolerance="10"
   guidetolerance="10"
   inkscape:pageopacity="0"
   inkscape:pageshadow="2"
   inkscape:window-width="3840"
   inkscape:window-height="2022"
   id="namedview68"
   showgrid="false"
   fit-margin-top="0"
   fit-margin-left="0"
   fit-margin-right="0"
   fit-margin-bottom="0"
   inkscape:zoom="3.1258278"
   inkscape:cx="101.40357"
   inkscape:cy="95.924318"
   inkscape:window-x="0"
   inkscape:window-y="100"
   inkscape:window-maximized="1"
   inkscape:current-layer="svg66" />
<style
   type="text/css"
   id="style2">
    .st0000{fill:#676767;}
    .st11111{fill:#61C5E8;}
    .st222222{fill:#ED6F30;}
    .st333333{fill:#80BC49;}
</style>
<defs
   id="defs4">
</defs>

<path
   class="st11111"
   d="M 555.0947,510.2509 290.05023,236.81133 C 272.46055,218.82189 242.47814,216.82306 222.88964,232.41391 118.55086,315.16536 67.380881,385.92384 9.4148929,515.84762 -17.369391,576.2122 15.011609,629.78077 80.972906,634.57795 l 411.758384,81.55216 c 23.98593,1.59906 49.17115,-15.59085 55.5674,-38.77725 l 25.98475,-93.54512 c 5.99649,-23.18639 -2.39859,-56.36692 -19.18874,-73.55684 z"
   id="path20"
   inkscape:connector-curvature="0"
   style="fill:#61c5e8;stroke-width:3.99765444" />
<path
   class="st222222"
   d="M 648.24005,380.32713 589.47453,141.66715 c -7.19578,-28.78311 -36.77842,-52.769038 -65.9613,-51.169978 -56.36692,3.59789 -111.93432,16.390378 -171.89912,41.575608 -27.18405,11.19343 -32.78077,40.37631 -13.99179,62.76318 l 236.66112,281.43487 c 18.78898,22.38687 45.97303,21.58734 60.36459,-1.99883 14.39155,-23.58616 20.38803,-65.56153 13.59202,-93.94487 z"
   id="path22"
   inkscape:connector-curvature="0"
   style="fill:#ed6f30;stroke-width:3.99765444" />
<path
   class="st333333"
   d="M 767.76992,373.53111 802.54951,268.3928 c 11.99296,-36.37865 0.79953,-88.74794 -28.38335,-113.93316 -19.98827,-17.18991 -41.97537,-34.37983 -64.36223,-49.17115 -31.98124,-21.187568 -58.76552,-2.39859 -56.36693,35.97889 l 11.5932,179.89446 c 2.39859,38.37748 21.58733,80.35285 42.7749,93.54511 21.18757,13.59203 47.97185,-4.79718 59.96482,-41.17584 z"
   id="path24"
   inkscape:connector-curvature="0"
   style="fill:#80bc49;stroke-width:3.99765444" />




















</svg>